<svg xmlns="http://www.w3.org/2000/svg" width="1200" height="630" viewBox="0 0 1200 630" role="img" aria-label="Topographic field map with a distant vermilion waypoint"><rect width="1200" height="630" fill="#f4f0e6"/><g fill="none" stroke="#728477" stroke-width="3" opacity=".75"><path d="M-30 360C150 190 310 500 490 330s310 80 490-80 280 10 360-80"/><path d="M-30 400C160 230 320 540 500 370s300 80 490-70 280 0 360-90"/><path d="M-30 440C180 270 330 580 510 410s300 70 480-60 270-10 360-100"/><path d="M-30 480C180 310 350 610 530 450s290 80 470-50 260-20 350-100"/></g><path d="M0 510 210 410 430 500 660 365 840 465 1040 330 1200 400v230H0z" fill="#1e5b49"/><circle cx="920" cy="330" r="20" fill="#b33a2e"/><circle cx="920" cy="330" r="35" fill="none" stroke="#b33a2e" stroke-width="3"/><text x="80" y="135" fill="#18241f" font-family="Arial, sans-serif" font-size="58" font-weight="700">Reading Comfort Pacer</text><text x="84" y="205" fill="#526058" font-family="Arial, sans-serif" font-size="32">Take screen breaks after a stopping point.</text></svg>
